HIERARCHY
ROOT Joint1
{
	OFFSET 0.000000 0.000000 0.000000
	CHANNELS 6 Xposition Yposition Zposition Xrotation Yrotation Zrotation
	JOINT Joint2
	{
		OFFSET -0.000000 0.000000 1.456275
		CHANNELS 6 Xposition Yposition Zposition Xrotation Yrotation Zrotation
		JOINT Joint3
		{
			OFFSET -0.000000 0.000002 1.471446
			CHANNELS 6 Xposition Yposition Zposition Xrotation Yrotation Zrotation
			JOINT Joint4
			{
				OFFSET 0.625745 0.000000 0.917755
				CHANNELS 6 Xposition Yposition Zposition Xrotation Yrotation Zrotation
				JOINT Joint5
				{
					OFFSET -0.629534 0.000001 0.940221
					CHANNELS 6 Xposition Yposition Zposition Xrotation Yrotation Zrotation
					JOINT Joint6
					{
						OFFSET -0.000001 0.113772 1.960660
						CHANNELS 6 Xposition Yposition Zposition Xrotation Yrotation Zrotation
						JOINT Joint7
						{
							OFFSET -0.669733 -0.113771 0.388340
							CHANNELS 6 Xposition Yposition Zposition Xrotation Yrotation Zrotation
							End Site
							{
								OFFSET 0.005509 0.005509 0.438980
							}
						}
					}
				}
			}
		}
	}
}
MOTION
Frames: 14
Frame Time: 0.041667
0.000000 0.000000 0.000000 -0.000000 1.019410 -0.000330 -0.000000 -0.000000 1.456275 0.000000 -44.993123 0.000000 -0.000000 0.000002 1.471446 0.000000 -1.133460 -0.041511 0.625745 0.000000 0.917755 0.000004 135.029507 -0.000001 -0.629533 0.000001 0.940221 -0.000000 1.709736 -0.015502 -0.000001 0.113772 1.960661 -88.309517 89.966876 -0.003978 -0.669733 -0.113771 0.388340 -0.704636 3.566197 134.933993 
0.000000 0.000000 0.000000 -0.000000 1.019410 0.000945 -0.000000 -0.000000 1.456275 -0.000000 -45.026844 -0.000000 -0.000000 0.000002 1.471446 0.000000 -1.133458 -0.080344 0.625745 0.000000 0.917755 0.000004 135.047497 -0.000001 -0.629534 0.000001 0.940221 0.000000 1.709736 0.000835 -0.000001 0.113772 1.960660 -88.307871 89.952628 -0.002785 -0.669733 -0.113771 0.388340 -0.702493 3.566192 134.813386 
0.000000 0.000000 0.000000 -0.000000 1.019410 0.003168 -0.000000 0.000000 1.456275 -0.000000 -45.085679 -0.000000 -0.000000 0.000002 1.471446 0.000000 -1.133459 -0.148097 0.625745 0.000000 0.917755 0.000004 135.078875 -0.000001 -0.629534 0.000001 0.940220 0.000000 1.709737 0.029340 -0.000001 0.113772 1.960661 -88.306580 89.927787 -0.001747 -0.669733 -0.113771 0.388340 -0.698756 3.566174 134.602961 
0.000000 0.000000 0.000000 -0.000000 1.019410 0.006422 -0.000000 0.000000 1.456275 -0.000000 -45.171784 0.000000 -0.000000 0.000002 1.471446 0.000000 -1.133461 -0.247249 0.625744 0.000000 0.917755 0.000004 135.124802 -0.000001 -0.629534 0.000001 0.940221 -0.000000 1.709737 0.071055 -0.000001 0.113772 1.960660 -88.305624 89.891423 -0.001166 -0.669733 -0.113771 0.388340 -0.693286 3.566121 134.295002 
0.000000 0.000000 0.000000 -0.000000 1.019410 0.010788 -0.000000 0.000000 1.456275 -0.000000 -45.287303 -0.000000 -0.000000 0.000002 1.471446 0.000000 -1.133461 -0.380281 0.625745 0.000000 0.917755 0.000004 135.186410 -0.000001 -0.629534 0.000001 0.940221 0.000000 1.709736 0.127024 -0.000000 0.113772 1.960661 -88.305077 89.842635 -0.000848 -0.669733 -0.113771 0.388340 -0.685948 3.566004 133.881816 
0.000000 0.000000 0.000000 -0.000000 1.019410 0.016348 -0.000000 0.000000 1.456275 -0.000000 -45.434401 0.000000 -0.000000 0.000002 1.471446 0.000000 -1.133457 -0.549671 0.625744 0.000000 0.917755 0.000004 135.264861 -0.000001 -0.629533 0.000001 0.940221 0.000000 1.709737 0.198290 -0.000000 0.113772 1.960660 -88.304750 89.780514 -0.000585 -0.669733 -0.113771 0.388339 -0.676606 3.565779 133.355701 
0.000000 0.000000 0.000000 -0.000000 1.019410 0.023182 -0.000000 -0.000000 1.456275 -0.000000 -45.615224 0.000000 -0.000000 0.000002 1.471446 0.000000 -1.133460 -0.757902 0.625745 0.000000 0.917755 0.000004 135.361304 -0.000001 -0.629534 0.000001 0.940220 0.000000 1.709736 0.285895 -0.000001 0.113772 1.960660 -88.304538 89.704153 -0.000410 -0.669733 -0.113771 0.388340 -0.665125 3.565386 132.708964 
0.000000 0.000000 0.000000 -0.000000 1.019410 0.031372 -0.000000 0.000000 1.456275 -0.000000 -45.831929 0.000000 -0.000000 0.000002 1.471446 -0.000000 -1.133459 -1.007450 0.625745 0.000000 0.917755 0.000004 135.476898 -0.000001 -0.629533 0.000001 0.940221 -0.000000 1.709736 0.390885 0.000000 0.113772 1.960660 -88.304367 89.612635 -0.000327 -0.669733 -0.113771 0.388340 -0.651373 3.564744 131.933901 
0.000000 0.000000 0.000000 -0.000000 1.019410 0.040999 -0.000000 0.000000 1.456275 -0.000000 -46.086664 0.000000 -0.000000 0.000002 1.471446 -0.000000 -1.133461 -1.300798 0.625744 0.000000 0.917755 0.000004 135.612764 -0.000001 -0.629534 0.000001 0.940221 -0.000000 1.709736 0.514302 -0.000001 0.113772 1.960661 -88.304278 89.505053 -0.000244 -0.669733 -0.113771 0.388341 -0.635221 3.563752 131.022795 
0.000000 0.000000 0.000000 -0.000000 1.019410 0.052146 -0.000000 0.000000 1.456275 -0.000000 -46.381591 0.000000 -0.000000 0.000002 1.471446 -0.000000 -1.133459 -1.640425 0.625745 0.000000 0.917755 0.000004 135.770063 -0.000001 -0.629534 0.000001 0.940221 -0.000000 1.709736 0.657188 -0.000001 0.113772 1.960660 -88.304203 89.380504 -0.000204 -0.669733 -0.113771 0.388340 -0.616543 3.562283 129.967954 
0.000000 0.000000 0.000000 -0.000000 1.019410 0.064892 -0.000000 0.000000 1.456275 0.000000 -46.718856 -0.000000 -0.000000 0.000002 1.471446 -0.000000 -1.133458 -2.028810 0.625745 0.000000 0.917755 0.000004 135.949957 -0.000001 -0.629534 0.000001 0.940221 -0.000000 1.709736 0.820589 -0.000001 0.113772 1.960660 -88.304128 89.238068 -0.000164 -0.669733 -0.113771 0.388340 -0.595221 3.560183 128.761688 
0.000000 0.000000 0.000000 -0.000000 1.019410 0.079320 -0.000000 0.000000 1.456275 -0.000000 -47.100623 0.000000 -0.000000 0.000002 1.471446 0.000000 -1.133460 -2.468434 0.625745 0.000000 0.917755 0.000004 136.153578 -0.000001 -0.629534 0.000001 0.940221 0.000000 1.709737 1.005546 0.000000 0.113772 1.960661 -88.304080 89.076841 -0.000132 -0.669733 -0.113771 0.388341 -0.571145 3.557267 127.396279 
0.000000 0.000000 0.000000 -0.000000 1.019410 0.095511 -0.000000 -0.000000 1.456275 -0.000000 -47.529036 0.000000 -0.000001 0.000002 1.471446 -0.000000 -1.133461 -2.961775 0.625744 0.000000 0.917755 0.000004 136.382075 -0.000001 -0.629534 0.000001 0.940221 -0.000000 1.709736 1.213103 -0.000000 0.113772 1.960661 -88.304053 88.895909 -0.000111 -0.669733 -0.113771 0.388340 -0.544220 3.553313 125.864035 
0.000000 0.000000 0.000000 -0.000000 1.019410 0.113435 -0.000000 0.000000 1.456275 -0.000000 -48.003280 0.000000 -0.000000 0.000002 1.471446 -0.000000 -1.133460 -3.507902 0.625745 0.000000 0.917755 0.000003 136.635038 -0.000001 -0.629534 0.000001 0.940221 -0.000000 1.709736 1.442869 -0.000001 0.113772 1.960660 -88.304026 88.695621 -0.000095 -0.669733 -0.113771 0.388339 -0.514549 3.548100 124.167853 
